:version 1.10
:name ASF
:units
  mass 1
  length 1
  angle deg
:documentation
  ASF file generated by Kaydara
:root
  axis xyz
  order  tx ty tz rx ry rz
  position 0 0 0
  orientation 0 0 0
:bonedata
  begin
    id 1
    name RightUpLegDummy
    direction -0.718183 -0.695806 0.00816078
    length 4.904
    axis 0 0 0 xyz
  end
  begin
    id 2
    name RightUpLeg
    direction 3.53373e-006 -0.995788 0.0916898
    length 17.4976
    axis -3.49089 -0.000906625 0.000286804 xyz
    dof rx ry rz
  end
  begin
    id 3
    name RightLeg
    direction 0.00371092 -0.995096 -0.0988419
    length 16.5821
    axis 3.68512 0.0193738 -0.131023 xyz
    dof rx ry rz
  end
  begin
    id 4
    name RightFoot
    direction 0.00079151 -0.46099 0.887405
    length 3.77069
    axis 4.81691e-005 -0.120479 -0.188788 xyz
    dof rx ry rz
  end
  begin
    id 5
    name RightToes
    direction 0.00124746 -0.014064 0.9999
    length 3.85082
    axis 0.000481921 0.542163 -0.142578 xyz
    dof rx ry rz
  end
  begin
    id 6
    name SpineDummy
    direction 8.3039e-015 1 4.57515e-016
    length 4.6813
    axis 0 0 0 xyz
  end
  begin
    id 7
    name Spine
    direction -3.15643e-008 0.999988 0.00495137
    length 10.1015
    axis -0.001389 0.000121418 2.40972e-006 xyz
    dof rx ry rz
  end
  begin
    id 8
    name Spine1
    direction 0 0 0
    length 0
    axis -0.001389 0.000121451 1.30017e-006 xyz
    dof rx ry rz
  end
  begin
    id 9
    name HEadDummy
    direction -1.99912e-008 0.999999 0.00127422
    length 3.43865
    axis -0.001389 0.000121451 1.30017e-006 xyz
  end
  begin
    id 10
    name HEad
    direction -0.0222688 0.980941 0.193023
    length 5.12695
    axis -0.001389 0.000121451 1.30017e-006 xyz
    dof rx ry rz
  end
  begin
    id 11
    name LeftShoulder1Dummy
    direction 0.998891 -0.0402509 -0.0244456
    length 3.5433
    axis -0.001389 0.000121451 1.30017e-006 xyz
  end
  begin
    id 12
    name LeftShoulder1
    direction 0.99951 -0.000327763 0.0313091
    length 4.05031
    axis -0.001389 0.000121451 1.30017e-006 xyz
    dof rx ry rz
  end
  begin
    id 13
    name LeftArm
    direction 0.998561 -0.00100056 -0.0536182
    length 10.3537
    axis -23.1894 0.134784 0.967509 xyz
    dof rx ry rz
  end
  begin
    id 14
    name LeftForeArm
    direction 0.998903 0.00866432 0.046012
    length 8.70632
    axis -9.91835 -0.06569 -0.177794 xyz
    dof rx ry rz
  end
  begin
    id 15
    name LeftHand
    direction 0.992938 -0.0411637 0.11126
    length 5.32135
    axis -0.00960232 -0.00340091 0.185173 xyz
    dof rx ry rz
  end
  begin
    id 16
    name RightShoulderDummy
    direction -0.998891 -0.0402509 -0.0244414
    length 3.5433
    axis -0.001389 0.000121451 1.30017e-006 xyz
  end
  begin
    id 17
    name RightShoulder
    direction -0.99951 -0.000327807 0.0313133
    length 4.05031
    axis 0.215806 0.000203643 -0.0068026 xyz
    dof rx ry rz
  end
  begin
    id 18
    name RightArm
    direction -0.998573 -0.000999564 -0.053403
    length 10.3947
    axis -23.2009 -0.134239 -0.964101 xyz
    dof rx ry rz
  end
  begin
    id 19
    name RightForeArm
    direction -0.998898 0.00868028 0.0461306
    length 8.68355
    axis -9.92322 0.0658061 0.178868 xyz
    dof rx ry rz
  end
  begin
    id 20
    name RightHand
    direction -0.992843 -0.0414603 0.112003
    length 5.28593
    axis -0.00960638 0.00330671 -0.185228 xyz
    dof rx ry rz
  end
  begin
    id 21
    name LeftUpLegDummy
    direction 0.718183 -0.695806 0.00816078
    length 4.904
    axis 0 0 0 xyz
  end
  begin
    id 22
    name LeftUpLeg
    direction -6.81752e-006 -0.995793 0.0916337
    length 17.4976
    axis -3.48766 0.00143442 -0.000524262 xyz
    dof rx ry rz
  end
  begin
    id 23
    name LeftLeg
    direction -0.00601358 -0.995091 -0.0987824
    length 16.5821
    axis 3.68178 -0.00654042 -0.000285133 xyz
    dof rx ry rz
  end
  begin
    id 24
    name LeftFoot
    direction -0.00417578 -0.460984 0.887399
    length 3.77069
    axis 1.87233e-006 4.66016e-005 -8.6538e-006 xyz
    dof rx ry rz
  end
  begin
    id 25
    name LeftToes
    direction 0.00818058 -0.00485161 0.999955
    length 3.85048
    axis 1.06247e-005 4.65869e-005 -8.65513e-006 xyz
    dof rx ry rz
  end
:hierarchy
  begin
    root RightUpLegDummy SpineDummy LeftUpLegDummy
    RightUpLegDummy RightUpLeg
    RightUpLeg RightLeg
    RightLeg RightFoot
    RightFoot RightToes
    SpineDummy Spine
    Spine Spine1
    Spine1 HEadDummy LeftShoulder1Dummy RightShoulderDummy
    HEadDummy HEad
    LeftShoulder1Dummy LeftShoulder1
    LeftShoulder1 LeftArm
    LeftArm LeftForeArm
    LeftForeArm LeftHand
    RightShoulderDummy RightShoulder
    RightShoulder RightArm
    RightArm RightForeArm
    RightForeArm RightHand
    LeftUpLegDummy LeftUpLeg
    LeftUpLeg LeftLeg
    LeftLeg LeftFoot
    LeftFoot LeftToes
  end

:SAMPLES-PER-SECOND 30
:FRAME-RANGE 1-3358
:FULLY-SPECIFIED
:DEGREES
105
root  6.82322 39.3297 -31.6056 2.23729 18.4557 2.96164
RightUpLeg  -28.5706 -12.7487 -11.3251
RightLeg  56.4602 -6.65427 -11.0854
RightFoot  4.83293 -0.676482 4.99041
RightToes  -5.8209e-011 0 -3.6325e-017
Spine  7.94847 2.429 4.84369
Spine1  -1.71207 3.7562 -7.01023
HEad  1.97674 4.06472 -9.32503
LeftShoulder1  2.00074 -4.541 -18.2978
LeftArm  -24.5772 -65.9133 -49.3904
LeftForeArm  -5.22509 7.63535 -11.4571
LeftHand  -0.476419 9.59618 -11.0909
RightShoulder  16.0938 45.298 25.8143
RightArm  -37.9973 44.3424 15.8918
RightForeArm  -17.8136 -6.85349 8.22351
RightHand  0.526419 0.601981 10.1533
LeftUpLeg  -4.14275 23.1222 5.40818
LeftLeg  19.5628 5.7998 -1.43685
LeftFoot  -12.3401 -0.0158284 -10.2558
LeftToes  -4.03819e-010 -8.71445e-011 8.52097e-011
106
root  5.78894 38.8757 -31.4274 2.76875 22.5278 4.06407
RightUpLeg  -29.9598 -10.551 -14.6917
RightLeg  47.788 -7.06569 -8.58528
RightFoot  2.39405 -0.834011 7.0517
RightToes  -5.8209e-011 0 -3.6325e-017
Spine  10.1835 2.10034 3.4852
Spine1  -1.58336 3.71506 -7.50551
HEad  -2.11204 4.25513 -9.15132
LeftShoulder1  2.12299 -4.61952 -19.6601
LeftArm  -21.7414 -66.0019 -52.2488
LeftForeArm  -4.00702 7.74682 -12.0476
LeftHand  -0.454997 9.39378 -11.08
RightShoulder  16.448 44.2393 27.3788
RightArm  -39.2146 43.2389 13.5605
RightForeArm  -18.1744 -6.80487 7.98324
RightHand  0.591271 1.12795 10.4256
LeftUpLeg  -7.58893 24.7898 4.35207
LeftLeg  23.0376 0.187407 -0.0351422
LeftFoot  -13.4246 -0.109764 -10.4267
LeftToes  -4.03819e-010 -8.71445e-011 8.52097e-011
107
root  4.77293 38.4528 -31.1869 3.10965 25.6732 4.97797
RightUpLeg  -29.7768 -4.14666 -18.7795
RightLeg  34.974 -8.12943 -6.3143
RightFoot  1.47849 -1.05755 9.48316
RightToes  -5.8209e-011 0 -3.6325e-017
Spine  12.2573 1.9973 4.0994
Spine1  0.198994 4.21588 -8.41878
HEad  -6.0703 4.52641 -9.96653
LeftShoulder1  2.38788 -5.09895 -21.3974
LeftArm  -19.2731 -65.6651 -54.3718
LeftForeArm  -3.81462 7.86675 -12.7936
LeftHand  -0.445492 9.14555 -11.5511
RightShoulder  16.408 43.1421 28.1791
RightArm  -40.5534 42.1649 11.5183
RightForeArm  -19.3426 -6.71739 7.63447
RightHand  0.684016 1.36697 11.6144
LeftUpLeg  -10.4929 21.6386 4.69003
LeftLeg  26.7374 -0.344262 0.165945
LeftFoot  -13.4618 -0.136031 -11.6627
LeftToes  -4.03819e-010 -8.71445e-011 8.52097e-011
108
root  3.83498 38.084 -30.6711 3.24992 27.5656 4.81134
RightUpLeg  -29.8589 4.33667 -22.4994
RightLeg  23.6186 -12.0357 -5.91065
RightFoot  0.211347 -0.903963 8.93284
RightToes  -5.8209e-011 0 -3.6325e-017
Spine  13.6342 1.72195 6.65236
Spine1  1.7055 4.98706 -10.7774
HEad  -8.77587 5.67889 -11.6606
LeftShoulder1  2.59598 -5.54844 -22.3773
LeftArm  -18.4175 -64.3777 -55.9971
LeftForeArm  -3.50211 7.8964 -12.9554
LeftHand  -0.435827 8.9261 -11.9815
RightShoulder  15.9637 43.0732 27.2673
RightArm  -40.7795 41.1123 10.9911
RightForeArm  -20.0141 -6.68176 7.52556
RightHand  0.785505 1.91858 12.2835
LeftUpLeg  -12.2043 20.5515 6.66401
LeftLeg  29.078 -1.37491 -0.472017
LeftFoot  -13.8328 -0.195381 -12.7396
LeftToes  -4.03819e-010 -8.71445e-011 8.52097e-011
109
root  2.9184 37.6198 -29.8033 3.6033 29.1873 4.86484
RightUpLeg  -31.3331 8.27792 -24.4799
RightLeg  18.3964 -12.2752 -4.71376
RightFoot  -0.953721 -0.726722 7.91055
RightToes  -5.8209e-011 0 -3.6325e-017
Spine  14.7391 1.35861 8.19551
Spine1  2.00644 5.29842 -12.3634
HEad  -10.8027 7.94333 -13.675
LeftShoulder1  2.70218 -5.47621 -23.8697
LeftArm  -18.0169 -62.6575 -56.4639
LeftForeArm  -1.76407 7.95777 -13.2024
LeftHand  -0.369087 8.51303 -11.2666
RightShoulder  15.8382 43.325 26.7922
RightArm  -40.3589 41.0863 10.61
RightForeArm  -17.7646 -6.77703 7.75248
RightHand  0.866031 2.34767 12.7603
LeftUpLeg  -13.3831 19.709 8.9448
LeftLeg  31.2569 -2.69944 -1.40871
LeftFoot  -14.665 -0.330957 -14.3597
LeftToes  -4.03819e-010 -8.71445e-011 8.52097e-011
110
root  1.9631 37.0921 -28.508 4.36693 31.4621 5.74203
RightUpLeg  -32.0324 5.27502 -22.8828
RightLeg  18.5551 -8.52915 -3.38353
RightFoot  -2.34014 -0.949938 11.8256
RightToes  -5.8209e-011 0 -3.6325e-017
Spine  14.5456 1.22368 7.59876
Spine1  2.62643 5.13148 -12.2646
HEad  -11.934 10.3393 -14.8865
LeftShoulder1  2.76196 -5.41173 -24.8015
LeftArm  -19.5095 -59.8391 -55.5423
LeftForeArm  -1.64403 7.90863 -12.8777
LeftHand  -0.290122 7.77905 -11.1859
RightShoulder  15.9287 43.4347 26.9018
RightArm  -40.2634 42.062 10.6976
RightForeArm  -15.8319 -6.8365 7.82949
RightHand  0.87478 2.5388 12.5636
LeftUpLeg  -13.8475 18.1796 11.0607
LeftLeg  32.5531 -3.98959 -2.38085
LeftFoot  -15.2307 -0.478442 -16.6627
LeftToes  -4.03819e-010 -8.71445e-011 8.52097e-011
111
root  0.990203 36.8191 -27.0169 4.32176 33.9339 5.79083
RightUpLeg  -32.0317 3.96944 -20.0813
RightLeg  21.5371 -6.45602 -3.01377
RightFoot  2.69894 -1.60082 13.0981
RightToes  -5.8209e-011 0 -3.6325e-017
Spine  14.8051 1.25371 8.25074
Spine1  2.54991 4.98803 -11.5091
HEad  -11.4169 12.0996 -15.2048
LeftShoulder1  2.81651 -5.43606 -25.3513
LeftArm  -22.0335 -56.7101 -53.1724
LeftForeArm  -3.21151 7.8069 -12.3586
LeftHand  -0.209685 6.9497 -11.5895
RightShoulder  16.3003 43.643 27.5388
RightArm  -39.7789 43.0549 11.6073
RightForeArm  -15.2619 -6.87107 7.95865
RightHand  0.825249 2.57502 11.7897
LeftUpLeg  -12.5087 16.6921 14.2798
LeftLeg  30.9387 -5.47285 -3.18456
LeftFoot  -14.2722 -0.409029 -19.1519
LeftToes  -4.03819e-010 -8.71445e-011 8.52097e-011
112
root  0.0166355 36.4805 -25.2224 3.83176 36.9356 5.82654
RightUpLeg  -33.5941 2.54949 -17.5066
RightLeg  29.8737 -6.71862 -4.38947
RightFoot  2.85547 -1.80969 14.6175
RightToes  -5.8209e-011 0 -3.6325e-017
Spine  14.9983 0.878131 9.22176
Spine1  2.17351 4.90421 -12.4525
HEad  -11.8238 13.3258 -16.0287
LeftShoulder1  2.77291 -5.06561 -26.238
LeftArm  -24.9721 -55.5471 -49.6534
LeftForeArm  -2.77429 7.68174 -11.7143
LeftHand  -0.143604 6.35035 -11.43
RightShoulder  16.7568 44.2956 27.9895
RightArm  -38.8887 44.0213 12.9752
RightForeArm  -14.1644 -6.92933 8.1613
RightHand  0.844737 2.74039 11.8118
LeftUpLeg  -10.4949 13.9899 17.8018
LeftLeg  28.5379 -6.386 -3.41084
LeftFoot  -12.88 -0.217931 -21.6978
LeftToes  -4.03819e-010 -8.71445e-011 8.52097e-011
113
root  -0.863712 36.3577 -23.3166 1.89053 41.0091 5.23848
RightUpLeg  -32.4697 -2.01668 -13.3925
RightLeg  36.6311 -5.03482 -4.2688
RightFoot  -1.43902 -0.975563 11.1148
RightToes  -5.8209e-011 0 -3.6325e-017
Spine  15.2069 0.297848 10.21
Spine1  2.1534 4.45275 -12.4673
HEad  -11.3928 14.4032 -15.6085
LeftShoulder1  2.69634 -4.94202 -25.7869
LeftArm  -27.846 -54.7097 -46.7692
LeftForeArm  -2.80295 7.02754 -11.0421
LeftHand  -0.145567 6.40589 -11.0398
RightShoulder  16.7518 44.1495 28.0968
RightArm  -37.5449 45.8053 15.1862
RightForeArm  -13.1959 -6.5266 8.5684
RightHand  0.784002 2.70934 10.9977
LeftUpLeg  -7.51484 10.2406 21.4326
LeftLeg  24.5423 -5.5723 -2.44208
LeftFoot  -9.09433 0.504013 -22.6751
LeftToes  -4.03819e-010 -8.71445e-011 8.52097e-011
114
root  -1.62959 36.5587 -21.5184 1.03159 46.6612 5.14377
RightUpLeg  -29.7584 -9.49823 -10.2965
RightLeg  39.2194 -3.67725 -3.49159
RightFoot  -5.33392 -0.481539 8.46832
RightToes  -5.8209e-011 0 -3.6325e-017
Spine  14.3056 -0.200798 10.6196
Spine1  1.86333 3.59145 -11.2556
HEad  -9.8935 14.7554 -13.7185
LeftShoulder1  2.61319 -4.91358 -24.8683
LeftArm  -28.9027 -54.9531 -44.7764
LeftForeArm  -3.26894 7.57737 -10.9138
LeftHand  -0.180204 6.76948 -10.8339
RightShoulder  17.3148 43.6041 29.7458
RightArm  -37.4337 46.0846 15.8652
RightForeArm  -13.4756 -4.44386 8.81234
RightHand  0.765074 2.54308 10.9677
LeftUpLeg  -7.18832 5.30729 22.4247
LeftLeg  21.1943 1.41218 0.931611
LeftFoot  -1.79698 1.28958 -15.2447
LeftToes  -4.03819e-010 -8.71445e-011 8.52097e-011
115
root  -2.27072 37.0114 -19.8295 0.922882 51.9177 5.11455
RightUpLeg  -26.7267 -14.1291 -7.9554
RightLeg  38.8649 -4.66073 -4.29655
RightFoot  -7.52097 -0.273157 6.64739
RightToes  -5.8209e-011 0 -3.6325e-017
Spine  13.1686 0.379817 10.0148
Spine1  0.787024 3.45082 -9.12055
HEad  -7.77037 13.424 -12.6524
LeftShoulder1  2.64618 -4.95509 -25.117
LeftArm  -29.1351 -55.8529 -44.121
LeftForeArm  -2.45153 7.59645 -10.9643
LeftHand  -0.176973 6.75803 -10.6769
RightShoulder  17.0134 42.6532 29.9073
RightArm  -37.4926 45.4462 15.7813
RightForeArm  -13.855 -3.25785 8.89946
RightHand  0.706005 2.37607 10.3424
LeftUpLeg  -8.7186 5.09414 21.5363
LeftLeg  22.1137 3.8512 2.04697
LeftFoot  -1.20865 1.10489 -12.3446
LeftToes  -4.03819e-010 -8.71445e-011 8.52097e-011
116
root  -2.7814 37.6299 -18.2773 0.126343 56.4957 4.83609
RightUpLeg  -22.4469 -15.634 -5.98232
RightLeg  36.2519 -7.4741 -6.11389
RightFoot  -8.16303 -0.209407 5.54208
RightToes  -5.8209e-011 0 -3.6325e-017
Spine  12.0716 0.711255 10.0915
Spine1  0.336289 3.59817 -8.72278
HEad  -5.39456 11.8649 -11.0943
LeftShoulder1  2.59011 -4.96394 -24.3895
LeftArm  -29.3831 -56.2337 -43.7009
LeftForeArm  -2.86919 7.58292 -10.9143
LeftHand  -0.165171 6.5923 -11.0776
RightShoulder  16.7007 42.2111 29.6038
RightArm  -38.1466 45.2737 16.0368
RightForeArm  -13.1934 -4.03941 8.42066
RightHand  0.614182 2.23791 9.15378
LeftUpLeg  -10.4219 10.758 19.0075
LeftLeg  26.953 2.39277 1.65674
LeftFoot  -3.51764 0.855245 -12.1641
LeftToes  -4.03819e-010 -8.71445e-011 8.52097e-011
